<svg width="145" height="48" viewBox="0 0 145 48" fill="none" xmlns="http://www.w3.org/2000/svg">
<path d="M104.934 45.8065C104.059 45.8065 103.173 45.9172 102.328 45.7864C100.537 45.5147 99.5908 44.0858 99.8021 42.1336C100.003 40.2519 101.15 39.2255 103.032 39.2255C104.421 39.2255 105.82 39.2053 107.208 39.2355C107.651 39.2456 107.752 39.1047 107.711 38.7022C107.681 38.3399 107.721 37.9676 107.701 37.5953C107.681 37.3236 107.792 37.2632 108.043 37.2632C108.869 37.2733 109.684 37.2834 110.509 37.2632C110.811 37.2532 110.871 37.3739 110.861 37.6356C110.841 38.0079 110.881 38.3701 110.851 38.7425C110.821 39.1148 110.931 39.2355 111.324 39.2255C112.662 39.2053 114.011 39.2456 115.349 39.2053C117.613 39.145 118.962 40.8154 118.65 43.0996C118.398 44.9109 117.271 45.8266 115.409 45.8266C114.031 45.8266 112.662 45.8367 111.284 45.8166C110.962 45.8166 110.831 45.887 110.851 46.2291C110.881 46.682 110.851 47.1348 110.861 47.5876C110.871 47.8291 110.831 47.9499 110.539 47.9398C109.704 47.9197 108.859 47.9197 108.023 47.9398C107.732 47.9499 107.701 47.8291 107.701 47.5876C107.721 47.1147 107.691 46.6518 107.711 46.1788C107.721 45.8971 107.641 45.8065 107.349 45.8166C106.544 45.8367 105.739 45.8266 104.934 45.8266C104.934 45.8266 104.934 45.8166 104.934 45.8065ZM112.632 43.7135C113.115 43.7135 113.608 43.7235 114.091 43.7135C114.775 43.7034 115.158 43.3311 115.178 42.6669C115.198 41.9323 114.826 41.4896 114.141 41.4695C113.155 41.4493 112.169 41.4695 111.173 41.4594C110.952 41.4594 110.831 41.5097 110.841 41.7613C110.851 42.3147 110.861 42.8682 110.841 43.4216C110.831 43.6933 110.962 43.7135 111.173 43.7135C111.656 43.7135 112.149 43.7135 112.632 43.7135ZM105.86 43.7135C106.363 43.7135 106.866 43.7034 107.369 43.7135C107.581 43.7135 107.711 43.6933 107.701 43.4216C107.681 42.8682 107.681 42.3147 107.701 41.7613C107.711 41.4996 107.601 41.4594 107.379 41.4594C106.393 41.4695 105.397 41.4493 104.411 41.4695C103.716 41.4795 103.384 41.882 103.384 42.6166C103.384 43.3009 103.737 43.6833 104.411 43.7135C104.884 43.7235 105.377 43.7135 105.86 43.7135Z" fill="#A0A0A0"/>
<path d="M19.369 35.3709C19.369 39.3558 19.3589 43.3507 19.379 47.3356C19.379 47.8387 19.2684 48.0098 18.7451 47.9796C17.7589 47.9393 16.7728 47.9695 15.7766 47.9695C15.1124 47.9695 15.1124 47.9695 15.1124 47.3255C15.1124 42.3444 15.1124 37.3734 15.1124 32.3924C15.1124 29.3434 15.1225 26.2943 15.1024 23.2453C15.1024 22.8428 15.203 22.6818 15.6357 22.6919C16.6923 22.7221 17.7489 22.7221 18.8055 22.6919C19.2382 22.6818 19.379 22.8026 19.379 23.2554C19.3589 27.2906 19.369 31.3257 19.369 35.3709Z" fill="#A0A0A0"/>
<path d="M93.7442 47.9403C92.3556 47.9403 90.9569 47.9504 89.5682 47.9303C89.1858 47.9303 88.7934 47.88 88.4211 47.7894C87.0928 47.4875 86.4588 46.8938 86.3381 45.5152C86.1569 43.5932 86.1569 41.6612 86.328 39.7392C86.4689 38.2097 87.3443 37.5053 88.8739 37.3443C90.2927 37.1933 91.7216 37.2738 93.1405 37.2638C94.7706 37.2436 96.3907 37.2738 98.0209 37.2537C98.353 37.2537 98.4436 37.3443 98.4335 37.6663C98.4033 38.1996 98.4033 38.743 98.4335 39.2763C98.4536 39.6486 98.3127 39.709 97.9807 39.709C95.7971 39.6989 93.6235 39.709 91.4399 39.6989C91.138 39.6989 90.8361 39.7392 90.5443 39.7996C89.9405 39.9304 89.5078 40.4738 89.4676 41.0977C89.4575 41.3291 89.538 41.3895 89.7493 41.3794C90.1317 41.3694 90.5242 41.3794 90.9065 41.3794C93.2512 41.3794 95.6059 41.3895 97.9505 41.3694C98.3027 41.3694 98.4637 41.4197 98.4335 41.8222C98.3932 42.3354 98.4033 42.8586 98.4335 43.3819C98.4536 43.7341 98.353 43.8247 98.0008 43.8247C95.3543 43.8045 92.6977 43.8146 90.0512 43.8146C89.367 43.8146 89.3669 43.8146 89.5682 44.4787C89.7896 45.2033 90.2223 45.5051 91.138 45.5152C93.382 45.5253 95.636 45.5353 97.88 45.5152C98.3027 45.5152 98.4838 45.5756 98.4335 46.0485C98.3832 46.4913 98.3932 46.9542 98.4335 47.407C98.4637 47.8196 98.3731 47.9806 97.9102 47.9605C96.5316 47.9202 95.143 47.9504 93.7442 47.9403Z" fill="#A0A0A0"/>
<path d="M9.25771 33.6696C8.05018 32.452 6.95334 31.2948 5.78606 30.2281C5.22255 29.7049 5.03135 29.1615 5.04142 28.4068C5.0716 22.2081 5.06154 16.0095 5.05148 9.80075C5.05148 9.33787 5.17223 9.21711 5.62506 9.22718C6.71183 9.25736 7.79861 9.2473 8.89545 9.23724C9.17721 9.23724 9.26777 9.31774 9.26777 9.60956C9.24765 17.5692 9.25771 25.549 9.25771 33.6696Z" fill="#A0A0A0"/>
<path d="M14.3185 15.1852C14.3185 18.6769 14.3084 22.1587 14.3286 25.6504C14.3286 26.0328 14.238 26.1234 13.8657 26.1133C12.7286 26.0831 11.5814 26.0932 10.4443 26.1133C10.1626 26.1133 10.0821 26.0328 10.0821 25.7511C10.0921 18.687 10.0921 11.633 10.0821 4.56896C10.0821 4.22683 10.223 4.19664 10.4947 4.19664C11.6217 4.20671 12.7386 4.21677 13.8657 4.18658C14.2581 4.17652 14.3286 4.29727 14.3286 4.66959C14.3084 8.18149 14.3185 11.6833 14.3185 15.1852Z" fill="#A0A0A0"/>
<path d="M24.3928 15.165C24.3928 18.6467 24.3828 22.1385 24.4029 25.6202C24.4029 26.0127 24.3123 26.1234 23.9098 26.1133C22.8029 26.0831 21.696 26.0932 20.5891 26.1133C20.247 26.1234 20.1765 26.0026 20.1765 25.6907C20.1866 18.6669 20.1866 11.6431 20.1765 4.62933C20.1765 4.30732 20.257 4.19663 20.5992 4.19663C21.7262 4.21676 22.8432 4.21676 23.9702 4.19663C24.3526 4.18657 24.4029 4.33751 24.3928 4.65952C24.3828 8.16136 24.3928 11.6632 24.3928 15.165Z" fill="#A0A0A0"/>
<path d="M19.3495 10.9891C19.3495 14.4608 19.3394 17.9324 19.3595 21.394C19.3595 21.7865 19.269 21.8972 18.8765 21.8871C17.7495 21.8569 16.6325 21.867 15.5055 21.8871C15.1936 21.8972 15.1231 21.8066 15.1231 21.4947C15.1332 14.4709 15.1332 7.44706 15.1231 0.423255C15.1231 0.101247 15.1936 0.000619086 15.5357 0.000619086C16.6627 0.0207446 17.7797 0.0308073 18.9067 0.000619086C19.2891 -0.00944367 19.3696 0.101247 19.3696 0.473568C19.3394 3.98547 19.3495 7.48731 19.3495 10.9891Z" fill="#A0A0A0"/>
<path d="M25.2687 33.5092C25.2687 33.3482 25.2687 33.1872 25.2687 33.0262C25.2687 25.2779 25.2687 17.5296 25.2586 9.79134C25.2586 9.36871 25.3291 9.2077 25.802 9.22783C26.8385 9.26808 27.885 9.25802 28.9215 9.22783C29.334 9.21776 29.4548 9.31839 29.4548 9.75109C29.4347 13.6756 29.4447 17.6 29.4447 21.5245C29.4447 24.0201 29.4447 26.5257 29.4548 29.0213C29.4548 29.3231 29.3743 29.5445 29.1529 29.7659C27.9454 30.9533 26.758 32.1508 25.5504 33.3482C25.48 33.4086 25.4397 33.5092 25.2687 33.5092Z" fill="#A0A0A0"/>
<path d="M20.1742 37.4237C20.1742 34.103 20.1843 30.7823 20.1642 27.4716C20.1642 27.0087 20.295 26.8679 20.7579 26.888C21.7641 26.9182 22.7704 26.8981 23.7767 26.8981C24.4408 26.8981 24.4408 26.8981 24.4408 27.5421C24.4408 33.6803 24.4408 39.8086 24.4408 45.9468C24.4408 46.4198 24.4106 46.8827 24.4509 47.3556C24.4811 47.8286 24.31 48.0097 23.827 47.9996C22.7905 47.9795 21.744 47.9695 20.7076 47.9996C20.2749 48.0097 20.1742 47.8286 20.1742 47.4361C20.1843 45.7053 20.1843 43.9846 20.1843 42.2538C20.1742 40.6438 20.1742 39.0337 20.1742 37.4237Z" fill="#A0A0A0"/>
<path d="M50.0418 47.9393C49.1764 47.889 47.9487 48.0299 46.7311 47.8588C45.1714 47.6374 44.3261 46.762 44.296 45.1922C44.2658 43.4815 44.2658 41.7709 44.296 40.0702C44.3261 38.4703 45.2217 37.5042 46.8217 37.3835C49.1764 37.2024 51.5411 37.2024 53.8958 37.3835C55.4757 37.5042 56.3612 38.4602 56.3914 40.03C56.4216 41.5998 56.4115 43.1796 56.4115 44.7494C56.4014 46.933 55.4757 47.8789 53.2719 47.9393C52.3059 47.9594 51.3499 47.9393 50.0418 47.9393ZM50.3437 45.5142C50.7965 45.5142 51.2493 45.5343 51.7021 45.5142C52.6984 45.4639 53.0707 45.1419 53.1713 44.1658C53.2921 43.079 53.2921 41.9922 53.1612 40.9055C53.0707 40.1809 52.799 39.8992 52.0946 39.7885C51.0581 39.6174 50.0217 39.6778 48.9852 39.7382C47.9789 39.7986 47.5462 40.2514 47.506 41.1671C47.4657 42.1532 47.4758 43.1394 47.516 44.1255C47.5563 44.9406 47.8984 45.2928 48.6934 45.4639C49.2368 45.5846 49.7902 45.4941 50.3437 45.5142Z" fill="#A0A0A0"/>
<path d="M14.3403 37.4238C14.3403 40.7445 14.3302 44.0652 14.3504 47.386C14.3504 47.8488 14.2196 47.9998 13.7567 47.9797C12.7001 47.9495 11.6435 47.9595 10.5869 47.9797C10.1944 47.9897 10.0737 47.8589 10.0737 47.4665C10.0838 40.7747 10.0838 34.083 10.0737 27.3913C10.0737 26.9787 10.2045 26.8781 10.5869 26.8881C11.6435 26.9083 12.7001 26.9183 13.7567 26.8881C14.1994 26.8781 14.3604 26.9888 14.3504 27.4617C14.3302 30.7824 14.3403 34.1031 14.3403 37.4238Z" fill="#A0A0A0"/>
<path d="M64.3516 47.96C63.1642 47.8896 61.9567 48.0204 60.7592 47.8594C59.1693 47.638 58.3039 46.7122 58.2938 45.1022C58.2837 43.4418 58.2837 41.7815 58.2938 40.1211C58.3039 38.5312 59.1793 37.5249 60.7693 37.3841C63.0032 37.1828 65.2572 37.1828 67.4912 37.3539C69.6647 37.5249 70.2987 38.2595 70.4295 40.4331C70.4899 41.4092 70.4899 41.4091 69.5339 41.4091C68.8798 41.4091 68.2257 41.3991 67.5717 41.4091C67.3704 41.4091 67.2597 41.389 67.2195 41.1375C67.0383 40.0607 66.8472 39.8394 65.7805 39.7488C64.7642 39.6582 63.7378 39.628 62.7214 39.789C61.9063 39.9199 61.5139 40.4029 61.5139 41.2381C61.5038 42.1437 61.5038 43.0494 61.5139 43.955C61.524 44.8506 61.9063 45.3839 62.7717 45.4745C63.8384 45.5852 64.9151 45.5953 65.9818 45.4745C66.8371 45.3739 67.0887 45.072 67.2094 44.1563C67.2497 43.8745 67.3302 43.8041 67.6019 43.8141C68.427 43.8343 69.2421 43.8343 70.0672 43.8141C70.349 43.8041 70.4496 43.8846 70.4396 44.1764C70.4094 44.8909 70.4396 45.6154 70.1779 46.2996C69.8157 47.2757 69.0408 47.6883 68.0748 47.8493C66.8472 48.0506 65.5994 47.8996 64.3516 47.96Z" fill="#A0A0A0"/>
<path d="M72.2807 42.5766C72.2807 40.9666 72.3008 39.3565 72.2706 37.7465C72.2606 37.3339 72.3914 37.2534 72.7738 37.2635C73.5486 37.2937 74.3134 37.2836 75.0882 37.2635C75.4001 37.2534 75.4806 37.354 75.4806 37.6559C75.4605 38.7427 75.4907 39.8395 75.4706 40.9263C75.4605 41.2684 75.5611 41.3791 75.9133 41.3791C77.5435 41.359 79.1636 41.359 80.7938 41.3791C81.1661 41.3791 81.2365 41.2483 81.2265 40.9162C81.2063 39.8295 81.2365 38.7326 81.2164 37.6459C81.2063 37.3339 81.2969 37.2534 81.6088 37.2635C82.434 37.2836 83.2491 37.2836 84.0742 37.2635C84.366 37.2534 84.4365 37.344 84.4365 37.6257C84.4264 40.9464 84.4264 44.2671 84.4365 47.5878C84.4365 47.8897 84.3359 47.9501 84.0642 47.9501C83.229 47.93 82.3837 47.93 81.5485 47.9501C81.2768 47.9602 81.2164 47.8595 81.2164 47.608C81.2265 46.5011 81.2063 45.3942 81.2265 44.2873C81.2365 43.9351 81.1762 43.7942 80.7736 43.8043C79.1435 43.8344 77.5234 43.8244 75.8932 43.8043C75.5209 43.8043 75.4605 43.925 75.4605 44.2571C75.4806 45.364 75.4504 46.4709 75.4806 47.5778C75.4907 47.9099 75.3498 47.9602 75.0681 47.9501C74.263 47.93 73.458 47.93 72.653 47.9501C72.3209 47.9602 72.2807 47.8394 72.2807 47.5476C72.2907 45.8973 72.2807 44.237 72.2807 42.5766Z" fill="#A0A0A0"/>
<path d="M132.144 42.5664C132.144 40.9362 132.154 39.3161 132.134 37.686C132.134 37.374 132.194 37.2533 132.536 37.2633C133.342 37.2935 134.147 37.2835 134.952 37.2633C135.274 37.2533 135.344 37.3539 135.344 37.6558C135.324 38.6319 135.354 39.5979 135.334 40.574C135.324 40.906 135.435 40.9966 135.757 40.9865C137.467 40.9664 139.178 40.9865 140.889 40.9765C141.311 40.9765 141.724 41.0167 142.136 41.0972C143.223 41.3086 143.948 41.9123 144.159 43.0393C144.33 43.9551 144.34 44.8808 144.169 45.7865C143.928 47.0242 143.243 47.638 142.016 47.8292C141.573 47.8997 141.12 47.95 140.667 47.95C137.98 47.9399 135.304 47.9399 132.617 47.96C132.245 47.96 132.144 47.8795 132.144 47.4971C132.164 45.8569 132.144 44.2066 132.144 42.5664ZM137.89 45.5248C138.423 45.5248 138.957 45.5248 139.49 45.5248C139.671 45.5248 139.862 45.5349 140.043 45.5248C140.607 45.5047 141.07 45.062 141.1 44.5186C141.13 43.9852 140.718 43.4519 140.154 43.4318C139.118 43.3815 138.081 43.3915 137.045 43.3915C136.481 43.4016 135.716 43.14 135.425 43.5022C135.143 43.8444 135.364 44.589 135.334 45.1525C135.314 45.4745 135.445 45.545 135.736 45.5349C136.451 45.5047 137.175 45.5248 137.89 45.5248Z" fill="#A0A0A0"/>
<path d="M30.298 42.5968C30.298 40.9566 30.298 39.3163 30.298 37.666C30.298 37.4849 30.2175 37.2635 30.5596 37.2635C33.4778 37.2837 36.3859 37.2937 39.3041 37.3139C39.606 37.3139 39.8978 37.3843 40.1997 37.4245C41.4777 37.6258 42.1821 38.4006 42.3532 39.6484C42.4538 40.4132 42.4739 41.188 42.3431 41.9528C42.0815 43.4421 41.1959 44.1364 39.606 44.227C37.7142 44.3276 35.8224 44.2773 33.9306 44.2773C33.5382 44.2773 33.4174 44.3678 33.4275 44.7703C33.4577 45.6961 33.4275 46.6118 33.4476 47.5376C33.4577 47.8496 33.3872 47.9703 33.0451 47.9602C32.2703 47.9301 31.5055 47.9301 30.7307 47.9602C30.3885 47.9703 30.2779 47.8898 30.2879 47.5275C30.308 45.8873 30.298 44.237 30.298 42.5968ZM35.9935 39.7088C35.279 39.7088 34.5545 39.7188 33.8401 39.6987C33.5483 39.6887 33.4174 39.749 33.4376 40.0811C33.4678 40.5339 33.4577 40.9868 33.4376 41.4295C33.4174 41.7314 33.4979 41.8421 33.8199 41.832C35.2388 41.8119 36.6576 41.832 38.0866 41.822C38.7608 41.822 39.2438 41.3691 39.2538 40.7754C39.2639 40.1717 38.7406 39.6987 38.0564 39.6987C37.3721 39.7088 36.6878 39.7088 35.9935 39.7088Z" fill="#A0A0A0"/>
<path d="M124.678 37.2736C126.559 37.2736 128.431 37.2837 130.313 37.2635C130.655 37.2635 130.786 37.334 130.755 37.6962C130.725 38.2497 130.735 38.8031 130.755 39.3566C130.766 39.6484 130.675 39.7188 130.393 39.7188C129.186 39.7088 127.978 39.739 126.771 39.6987C126.288 39.6887 126.117 39.7792 126.127 40.3226C126.157 42.7175 126.137 45.1125 126.147 47.5175C126.147 47.8596 126.076 47.9804 125.714 47.9703C124.959 47.9401 124.205 47.9401 123.45 47.9703C123.078 47.9804 122.977 47.8999 122.977 47.5074C122.997 45.0823 122.977 42.6471 122.997 40.2119C122.997 39.8295 122.917 39.6987 122.504 39.7088C121.327 39.739 120.159 39.6987 118.982 39.7289C118.61 39.739 118.539 39.6082 118.559 39.2761C118.59 38.7629 118.59 38.2396 118.559 37.7164C118.539 37.3642 118.63 37.2736 118.992 37.2736C120.884 37.2837 122.786 37.2736 124.678 37.2736Z" fill="#A0A0A0"/>
<path d="M4.17604 28.6187C2.78738 27.22 1.4591 25.8917 0.140878 24.5634C0 24.4226 0.0100628 24.2716 0.0100628 24.1005C0.0100628 20.961 0.0100628 17.8315 0 14.6919C0 14.3799 0.0905648 14.2994 0.392447 14.2994C1.52954 14.3196 2.67669 14.3095 3.81378 14.2994C4.09554 14.2994 4.22636 14.3397 4.22636 14.6718C4.21629 19.2302 4.21629 23.7987 4.21629 28.3571C4.22636 28.4074 4.20623 28.4577 4.17604 28.6187Z" fill="#A0A0A0"/>
<path d="M30.2974 28.6185C30.2974 27.2499 30.2974 26.0424 30.2974 24.8449C30.2974 21.494 30.3074 18.1431 30.2873 14.7922C30.2873 14.3998 30.3879 14.2891 30.7804 14.2992C31.8672 14.3294 32.9539 14.3193 34.0508 14.2992C34.3627 14.2992 34.4835 14.3595 34.4734 14.7017C34.4633 17.8211 34.4633 20.9305 34.4633 24.05C34.4633 24.2311 34.4835 24.4022 34.3225 24.5632C33.0143 25.8814 31.7061 27.1996 30.2974 28.6185Z" fill="#A0A0A0"/>
</svg>
